<?xml version="1.0" encoding="UTF-8" standalone="no"?><!-- Generator: Gravit.io --><svg xmlns="http://www.w3.org/2000/svg" xmlns:xlink="http://www.w3.org/1999/xlink" style="isolation:isolate" viewBox="0 0 108.595 89.625" width="108.595pt" height="89.625pt"><defs><clipPath id="_clipPath_m0hXBeTSyJSSz4qc8mrbbbTZdKGFqCj3"><rect width="108.595" height="89.625"/></clipPath></defs><g clip-path="url(#_clipPath_m0hXBeTSyJSSz4qc8mrbbbTZdKGFqCj3)"><g style="isolation:isolate"/><path d=" M 67.956 0 L 67.956 0 Q 88.141 0 98.368 7.738 L 98.368 7.738 L 98.368 7.738 Q 108.595 15.475 108.595 30.412 L 108.595 30.412 L 108.595 30.412 Q 108.595 37.813 105.904 47.502 L 105.904 47.502 L 105.904 47.502 Q 101.463 63.112 93.927 72.262 L 93.927 72.262 L 93.927 72.262 Q 86.392 81.413 74.079 85.584 L 74.079 85.584 L 74.079 85.584 Q 61.766 89.756 42.523 89.621 L 42.523 89.621 L 5.921 89.487 L 5.921 89.487 Q 3.095 89.487 1.548 88.545 L 1.548 88.545 L 1.548 88.545 Q 0 87.603 0 85.988 L 0 85.988 L 0 85.988 Q 0 85.181 0.404 84.239 L 0.404 84.239 L 0.404 84.239 Q 0.807 83.028 1.548 82.489 L 1.548 82.489 L 1.548 82.489 Q 2.288 81.951 3.768 81.009 L 3.768 81.009 L 3.768 81.009 Q 5.921 79.798 7.199 78.318 L 7.199 78.318 L 7.199 78.318 Q 8.478 76.837 9.42 73.608 L 9.42 73.608 L 25.837 15.744 L 25.837 15.744 Q 26.375 13.995 26.375 12.38 L 26.375 12.38 L 26.375 12.38 Q 26.375 10.9 25.904 9.891 L 25.904 9.891 L 25.904 9.891 Q 25.433 8.881 24.626 7.536 L 24.626 7.536 L 24.626 7.536 Q 23.415 5.786 23.415 4.71 L 23.415 4.71 L 23.415 4.71 Q 23.415 4.306 23.684 3.23 L 23.684 3.23 L 23.684 3.23 Q 24.222 1.48 26.039 0.74 L 26.039 0.74 L 26.039 0.74 Q 27.855 0 31.623 0 L 31.623 0 L 67.956 0 L 67.956 0 Z  M 60.157 32.193 L 60.157 32.193 Q 64.909 32.193 67.122 33.996 L 67.122 33.996 L 67.122 33.996 Q 69.334 35.799 69.334 38.913 L 69.334 38.913 L 69.334 38.913 Q 69.334 40.798 68.761 42.518 L 68.761 42.518 L 61.222 67.02 L 61.222 67.02 Q 60.976 68.003 60.976 68.74 L 60.976 68.74 L 60.976 68.74 Q 60.976 69.806 61.386 70.42 L 61.386 70.42 L 61.386 70.42 Q 61.795 71.035 62.533 71.608 L 62.533 71.608 L 62.533 71.608 Q 63.107 72.182 63.352 72.551 L 63.352 72.551 L 63.352 72.551 Q 63.598 72.92 63.434 73.493 L 63.434 73.493 L 63.434 73.493 Q 63.025 74.558 61.795 75.05 L 61.795 75.05 L 61.795 75.05 Q 60.566 75.542 58.026 75.542 L 58.026 75.542 L 39.343 75.542 L 39.343 75.542 Q 37.212 75.542 36.229 74.845 L 36.229 74.845 L 36.229 74.845 Q 35.246 74.149 35.573 73.001 L 35.573 73.001 L 35.573 73.001 Q 35.901 72.018 37.294 71.281 L 37.294 71.281 L 37.294 71.281 Q 38.523 70.625 39.343 69.724 L 39.343 69.724 L 39.343 69.724 Q 40.162 68.822 40.736 66.856 L 40.736 66.856 L 47.865 43.174 L 47.865 43.174 Q 48.111 42.436 48.111 41.945 L 48.111 41.945 L 48.111 41.945 Q 48.111 41.043 47.701 40.511 L 47.701 40.511 L 47.701 40.511 Q 47.291 39.978 46.472 39.404 L 46.472 39.404 L 46.472 39.404 Q 45.652 38.749 45.325 38.257 L 45.325 38.257 L 45.325 38.257 Q 44.997 37.766 45.243 36.946 L 45.243 36.946 L 45.243 36.946 Q 45.734 35.061 50.405 33.627 L 50.405 33.627 L 50.405 33.627 Q 55.076 32.193 60.157 32.193 L 60.157 32.193 L 60.157 32.193 Z  M 65.647 14.084 L 65.647 14.084 Q 68.843 14.084 70.973 16.173 L 70.973 16.173 L 70.973 16.173 Q 73.104 18.263 73.104 21.295 L 73.104 21.295 L 73.104 21.295 Q 73.104 23.425 71.997 25.474 L 71.997 25.474 L 71.997 25.474 Q 70.891 27.523 68.884 28.793 L 68.884 28.793 L 68.884 28.793 Q 66.876 30.063 64.418 30.063 L 64.418 30.063 L 64.418 30.063 Q 61.304 30.063 59.214 27.973 L 59.214 27.973 L 59.214 27.973 Q 57.125 25.884 57.043 22.77 L 57.043 22.77 L 57.043 22.77 Q 57.043 20.721 58.108 18.714 L 58.108 18.714 L 58.108 18.714 Q 59.173 16.706 61.14 15.395 L 61.14 15.395 L 61.14 15.395 Q 63.107 14.084 65.647 14.084 L 65.647 14.084 L 65.647 14.084 Z " fill-rule="evenodd" fill="rgb(0,0,0)"/></g></svg>