<?xml version="1.0" encoding="UTF-8" standalone="no"?><!-- Generator: Gravit.io --><svg xmlns="http://www.w3.org/2000/svg" xmlns:xlink="http://www.w3.org/1999/xlink" style="isolation:isolate" viewBox="0 0 310.185 256" width="310.185pt" height="256pt"><defs><clipPath id="_clipPath_jy2k3Onc5NH9Wsflt6Mncd1itq1gDZay"><rect width="310.185" height="256"/></clipPath></defs><g clip-path="url(#_clipPath_jy2k3Onc5NH9Wsflt6Mncd1itq1gDZay)"><g><clipPath id="_clipPath_j4WdB0IX9ScAjJKSqs8dmNnNnU4sY452"><rect x="0" y="0" width="310.185" height="256" transform="matrix(1,0,0,1,0,0)" fill="rgb(255,255,255)"/></clipPath><g clip-path="url(#_clipPath_j4WdB0IX9ScAjJKSqs8dmNnNnU4sY452)"><g><g><clipPath id="_clipPath_hRnN0I91MCUbksEjKpQ6YeSYh9N6o6fP"><rect x="77.554" y="57.951" width="159.446" height="131.593" transform="matrix(1,0,0,1,0,0)" fill="rgb(255,255,255)"/></clipPath><g clip-path="url(#_clipPath_hRnN0I91MCUbksEjKpQ6YeSYh9N6o6fP)"><g><g><g><path d=" M 177.331 57.951 L 177.331 57.951 Q 206.968 57.951 221.984 69.312 L 221.984 69.312 L 221.984 69.312 Q 237 80.672 237 102.603 L 237 102.603 L 237 102.603 Q 237 113.47 233.049 127.696 L 233.049 127.696 L 233.049 127.696 Q 226.528 150.616 215.463 164.05 L 215.463 164.05 L 215.463 164.05 Q 204.4 177.486 186.321 183.611 L 186.321 183.611 L 186.321 183.611 Q 168.243 189.736 139.989 189.538 L 139.989 189.538 L 86.247 189.341 L 86.247 189.341 Q 82.098 189.341 79.827 187.958 L 79.827 187.958 L 79.827 187.958 Q 77.554 186.575 77.554 184.204 L 77.554 184.204 L 77.554 184.204 Q 77.554 183.019 78.147 181.636 L 78.147 181.636 L 78.147 181.636 Q 78.739 179.858 79.827 179.066 L 79.827 179.066 L 79.827 179.066 Q 80.913 178.276 83.086 176.893 L 83.086 176.893 L 83.086 176.893 Q 86.247 175.115 88.124 172.942 L 88.124 172.942 L 88.124 172.942 Q 90.002 170.768 91.385 166.027 L 91.385 166.027 L 115.489 81.067 L 115.489 81.067 Q 116.279 78.499 116.279 76.128 L 116.279 76.128 L 116.279 76.128 Q 116.279 73.955 115.588 72.473 L 115.588 72.473 L 115.588 72.473 Q 114.896 70.99 113.711 69.015 L 113.711 69.015 L 113.711 69.015 Q 111.933 66.446 111.933 64.866 L 111.933 64.866 L 111.933 64.866 Q 111.933 64.273 112.328 62.693 L 112.328 62.693 L 112.328 62.693 Q 113.118 60.124 115.786 59.037 L 115.786 59.037 L 115.786 59.037 Q 118.452 57.951 123.985 57.951 L 123.985 57.951 L 177.331 57.951 L 177.331 57.951 L 177.331 57.951 Z  M 165.88 105.218 L 165.88 105.218 Q 172.857 105.218 176.107 107.866 L 176.107 107.866 L 176.107 107.866 Q 179.354 110.513 179.354 115.085 L 179.354 115.085 L 179.354 115.085 Q 179.354 117.853 178.513 120.378 L 178.513 120.378 L 167.444 156.354 L 167.444 156.354 Q 167.083 157.797 167.083 158.879 L 167.083 158.879 L 167.083 158.879 Q 167.083 160.444 167.685 161.346 L 167.685 161.346 L 167.685 161.346 Q 168.285 162.249 169.369 163.09 L 169.369 163.09 L 169.369 163.09 Q 170.212 163.933 170.571 164.475 L 170.571 164.475 L 170.571 164.475 Q 170.932 165.016 170.692 165.858 L 170.692 165.858 L 170.692 165.858 Q 170.091 167.422 168.285 168.144 L 168.285 168.144 L 168.285 168.144 Q 166.481 168.866 162.751 168.866 L 162.751 168.866 L 135.32 168.866 L 135.32 168.866 Q 132.191 168.866 130.747 167.843 L 130.747 167.843 L 130.747 167.843 Q 129.304 166.821 129.784 165.135 L 129.784 165.135 L 129.784 165.135 Q 130.266 163.692 132.311 162.61 L 132.311 162.61 L 132.311 162.61 Q 134.116 161.647 135.32 160.324 L 135.32 160.324 L 135.32 160.324 Q 136.522 159 137.365 156.113 L 137.365 156.113 L 147.832 121.341 L 147.832 121.341 Q 148.193 120.258 148.193 119.537 L 148.193 119.537 L 148.193 119.537 Q 148.193 118.213 147.591 117.431 L 147.591 117.431 L 147.591 117.431 Q 146.989 116.649 145.787 115.806 L 145.787 115.806 L 145.787 115.806 Q 144.583 114.844 144.103 114.122 L 144.103 114.122 L 144.103 114.122 Q 143.621 113.401 143.982 112.197 L 143.982 112.197 L 143.982 112.197 Q 144.703 109.429 151.562 107.324 L 151.562 107.324 L 151.562 107.324 Q 158.42 105.218 165.88 105.218 L 165.88 105.218 L 165.88 105.218 L 165.88 105.218 Z  M 173.941 78.63 L 173.941 78.63 Q 178.634 78.63 181.761 81.697 L 181.761 81.697 L 181.761 81.697 Q 184.89 84.766 184.89 89.217 L 184.89 89.217 L 184.89 89.217 Q 184.89 92.345 183.264 95.353 L 183.264 95.353 L 183.264 95.353 Q 181.641 98.362 178.694 100.226 L 178.694 100.226 L 178.694 100.226 Q 175.745 102.091 172.136 102.091 L 172.136 102.091 L 172.136 102.091 Q 167.564 102.091 164.496 99.022 L 164.496 99.022 L 164.496 99.022 Q 161.428 95.955 161.308 91.383 L 161.308 91.383 L 161.308 91.383 Q 161.308 88.374 162.872 85.428 L 162.872 85.428 L 162.872 85.428 Q 164.435 82.479 167.323 80.555 L 167.323 80.555 L 167.323 80.555 Q 170.212 78.63 173.941 78.63 L 173.941 78.63 L 173.941 78.63 L 173.941 78.63 Z " fill-rule="evenodd" fill="rgb(255,255,255)"/></g></g></g></g></g></g></g></g></g></svg>